<svg width="6" height="13" viewBox="0 0 6 13" fill="none" xmlns="http://www.w3.org/2000/svg">
<path d="M5.00394 12.4999C4.8759 12.5004 4.74939 12.4721 4.63371 12.4172C4.51802 12.3624 4.4161 12.2823 4.33544 12.1828L0.195826 7.04046C0.0697676 6.8871 0.000854492 6.69474 0.000854492 6.49622C0.000854492 6.2977 0.0697676 6.10534 0.195826 5.95199L4.48114 0.809616C4.62661 0.634589 4.83566 0.524522 5.06229 0.503627C5.28892 0.482732 5.51457 0.552721 5.68959 0.698197C5.86462 0.843674 5.97469 1.05272 5.99558 1.27935C6.01648 1.50598 5.94649 1.73163 5.80101 1.90665L1.96994 6.50051L5.67245 11.0944C5.77726 11.2202 5.84383 11.3734 5.8643 11.5358C5.88476 11.6983 5.85826 11.8632 5.78794 12.0111C5.71761 12.1589 5.6064 12.2835 5.46746 12.3702C5.32852 12.4568 5.16767 12.5019 5.00394 12.4999Z" fill="white"/>
</svg>
