<svg width="19" height="16" viewBox="0 0 19 16" fill="none" xmlns="http://www.w3.org/2000/svg">
<path d="M9.09658 4.70588C10.2169 4.70588 11.2913 5.1521 12.0834 5.94637C12.8756 6.74064 13.3206 7.81791 13.3206 8.94118C13.3206 10.0644 12.8756 11.1417 12.0834 11.936C11.2913 12.7303 10.2169 13.1765 9.09658 13.1765C7.9763 13.1765 6.90191 12.7303 6.10975 11.936C5.31759 11.1417 4.87256 10.0644 4.87256 8.94118C4.87256 7.81791 5.31759 6.74064 6.10975 5.94637C6.90191 5.1521 7.9763 4.70588 9.09658 4.70588ZM9.09658 5.64706C8.22525 5.64706 7.38961 5.99412 6.77349 6.61188C6.15736 7.22965 5.81123 8.06752 5.81123 8.94118C5.81123 9.81483 6.15736 10.6527 6.77349 11.2705C7.38961 11.8882 8.22525 12.2353 9.09658 12.2353C9.96791 12.2353 10.8036 11.8882 11.4197 11.2705C12.0358 10.6527 12.3819 9.81483 12.3819 8.94118C12.3819 8.06752 12.0358 7.22965 11.4197 6.61188C10.8036 5.99412 9.96791 5.64706 9.09658 5.64706ZM2.99521 1.88235H4.87256L6.7499 0H11.4433L13.3206 1.88235H15.1979C15.9448 1.88235 16.6611 2.17983 17.1892 2.70935C17.7173 3.23886 18.014 3.95704 18.014 4.70588V13.1765C18.014 13.9253 17.7173 14.6435 17.1892 15.173C16.6611 15.7025 15.9448 16 15.1979 16H2.99521C2.24836 16 1.5321 15.7025 1.00399 15.173C0.475886 14.6435 0.179199 13.9253 0.179199 13.1765V4.70588C0.179199 3.95704 0.475886 3.23886 1.00399 2.70935C1.5321 2.17983 2.24836 1.88235 2.99521 1.88235ZM7.13851 0.941176L5.26117 2.82353H2.99521C2.49731 2.82353 2.0198 3.02185 1.66773 3.37486C1.31566 3.72787 1.11787 4.20665 1.11787 4.70588V13.1765C1.11787 13.6757 1.31566 14.1545 1.66773 14.5075C2.0198 14.8605 2.49731 15.0588 2.99521 15.0588H15.1979C15.6959 15.0588 16.1734 14.8605 16.5254 14.5075C16.8775 14.1545 17.0753 13.6757 17.0753 13.1765V4.70588C17.0753 4.20665 16.8775 3.72787 16.5254 3.37486C16.1734 3.02185 15.6959 2.82353 15.1979 2.82353H12.932L11.0547 0.941176H7.13851Z" fill="#F3F3F3"/>
</svg>
