<svg width="14" height="14" viewBox="0 0 14 14" fill="none" xmlns="http://www.w3.org/2000/svg">
<path d="M1.76595 0.290752L6.99966 5.52428L12.2118 0.312289C12.3032 0.215067 12.4132 0.137293 12.5354 0.083631C12.6575 0.0299686 12.7892 0.00152305 12.9226 0C13.2082 0 13.4821 0.113454 13.6841 0.315404C13.886 0.517354 13.9995 0.791257 13.9995 1.07686C14.002 1.20888 13.9775 1.34003 13.9275 1.46224C13.8775 1.58446 13.8031 1.69517 13.7087 1.78758L8.44271 6.99957L13.7087 12.2654C13.8862 12.439 13.9903 12.6742 13.9995 12.9223C13.9995 13.2079 13.886 13.4818 13.6841 13.6837C13.4821 13.8857 13.2082 13.9991 12.9226 13.9991C12.7853 14.0048 12.6484 13.9819 12.5205 13.9319C12.3926 13.8818 12.2765 13.8057 12.1795 13.7084L6.99966 8.47487L1.77672 13.6976C1.68573 13.7916 1.57702 13.8666 1.45688 13.9184C1.33674 13.9701 1.20754 13.9976 1.07674 13.9991C0.791125 13.9991 0.517212 13.8857 0.315255 13.6837C0.113298 13.4818 -0.000160476 13.2079 -0.000160476 12.9223C-0.00267125 12.7903 0.0218249 12.6591 0.0718247 12.5369C0.121824 12.4147 0.196273 12.304 0.290601 12.2116L5.55662 6.99957L0.290601 1.73374C0.113113 1.56011 0.00903581 1.32498 -0.000160476 1.07686C-0.000160476 0.791257 0.113298 0.517354 0.315255 0.315404C0.517212 0.113454 0.791125 0 1.07674 0C1.33519 0.00323057 1.58288 0.107686 1.76595 0.290752Z" fill="white"/>
</svg>
