<svg width="13" height="13" viewBox="0 0 13 13" fill="none" xmlns="http://www.w3.org/2000/svg">
<path d="M6.32028 9.03977C6.33315 9.05607 6.34958 9.06925 6.36834 9.07832C6.3871 9.08738 6.4077 9.09209 6.42857 9.09209C6.44944 9.09209 6.47004 9.08738 6.4888 9.07832C6.50756 9.06925 6.524 9.05607 6.53686 9.03977L8.46199 6.62443C8.53247 6.5358 8.46887 6.40455 8.35371 6.40455H7.08002V0.636364C7.08002 0.561364 7.01814 0.5 6.94251 0.5H5.91119C5.83556 0.5 5.77368 0.561364 5.77368 0.636364V6.40284H4.50344C4.38827 6.40284 4.32468 6.53409 4.39515 6.62273L6.32028 9.03977ZM12.7196 8.44318H11.6883C11.6127 8.44318 11.5508 8.50455 11.5508 8.57955V11.2045H1.30634V8.57955C1.30634 8.50455 1.24446 8.44318 1.16883 8.44318H0.13751C0.0618793 8.44318 0 8.50455 0 8.57955V11.9545C0 12.2562 0.245798 12.5 0.550038 12.5H12.3071C12.6113 12.5 12.8571 12.2562 12.8571 11.9545V8.57955C12.8571 8.50455 12.7953 8.44318 12.7196 8.44318Z" fill="white"/>
</svg>
