<svg width="14" height="12" viewBox="0 0 14 12" fill="none" xmlns="http://www.w3.org/2000/svg">
<path d="M3.55597 9.41689L6.41507 9.40717L12.6555 3.22637C12.9004 2.98147 13.0351 2.65624 13.0351 2.31027C13.0351 1.9643 12.9004 1.63906 12.6555 1.39416L11.6279 0.36662C11.1381 -0.123179 10.2836 -0.120587 9.79767 0.364677L3.55597 6.54677V9.41689ZM10.7118 1.28273L11.7413 2.30832L10.7066 3.33327L9.67911 2.30638L10.7118 1.28273ZM4.85173 7.0871L8.75846 3.2173L9.78601 4.24484L5.87992 8.11335L4.85173 8.11659V7.0871Z" fill="white"/>
<path d="M2.26018 12H11.3305C12.0451 12 12.6263 11.4188 12.6263 10.7042V5.08838L11.3305 6.38414V10.7042H4.30619C4.28935 10.7042 4.27186 10.7107 4.25501 10.7107C4.23363 10.7107 4.21225 10.7049 4.19022 10.7042H2.26018V1.63387H6.69623L7.992 0.338104H2.26018C1.54557 0.338104 0.964417 0.919255 0.964417 1.63387V10.7042C0.964417 11.4188 1.54557 12 2.26018 12Z" fill="white"/>
</svg>
