<svg width="16" height="16" viewBox="0 0 16 16" fill="none" xmlns="http://www.w3.org/2000/svg">
<path d="M10.8073 1.04715L11.997 2.23685L10.2083 4.0091C9.88832 4.32908 9.88832 4.85419 10.2083 5.17418C10.5283 5.49417 11.0534 5.49417 11.3734 5.17418L13.1456 3.38553L14.3353 4.57523C14.3932 4.63193 14.4665 4.67024 14.5461 4.68532C14.6257 4.70041 14.7079 4.69161 14.7825 4.66002C14.8571 4.62844 14.9207 4.57548 14.9652 4.50782C15.0097 4.44017 15.0332 4.36085 15.0328 4.27986V0.75998C15.0328 0.530245 14.8522 0.349739 14.6225 0.349739H11.1026C11.0216 0.349263 10.9423 0.372773 10.8747 0.417305C10.807 0.461838 10.7541 0.5254 10.7225 0.599982C10.6909 0.674563 10.6821 0.756826 10.6972 0.836403C10.7123 0.91598 10.7506 0.989309 10.8073 1.04715ZM0.961456 4.57523L2.15116 3.38553L3.9234 5.17418C4.24339 5.49417 4.7685 5.49417 5.08849 5.17418C5.40848 4.85419 5.40848 4.32908 5.08849 4.0091L3.29983 2.23685L4.48954 1.04715C4.54623 0.989309 4.58454 0.91598 4.59963 0.836403C4.61472 0.756826 4.60592 0.674563 4.57433 0.599982C4.54274 0.5254 4.48978 0.461838 4.42213 0.417305C4.35448 0.372773 4.27516 0.349263 4.19416 0.349739H0.674287C0.444552 0.349739 0.264045 0.530245 0.264045 0.75998V4.27986C0.264045 4.64907 0.707106 4.82958 0.961456 4.57523ZM4.48954 14.421L3.29983 13.2313L5.08849 11.4591C5.40848 11.1391 5.40848 10.614 5.08849 10.294C4.7685 9.97401 4.24339 9.97401 3.9234 10.294L2.15116 12.0827L0.961456 10.893C0.903616 10.8363 0.830286 10.7979 0.75071 10.7829C0.671133 10.7678 0.58887 10.7766 0.514288 10.8082C0.439707 10.8397 0.376144 10.8927 0.331612 10.9604C0.287079 11.028 0.263569 11.1073 0.264045 11.1883V14.7082C0.264045 14.9379 0.444552 15.1184 0.674287 15.1184H4.19416C4.27516 15.1189 4.35448 15.0954 4.42213 15.0509C4.48978 15.0063 4.54274 14.9428 4.57433 14.8682C4.60592 14.7936 4.61472 14.7114 4.59963 14.6318C4.58454 14.5522 4.54623 14.4789 4.48954 14.421ZM14.3353 10.893L13.1456 12.0827L11.3734 10.294C11.0534 9.97401 10.5283 9.97401 10.2083 10.294C9.88832 10.614 9.88832 11.1391 10.2083 11.4591L11.997 13.2313L10.8073 14.421C10.7506 14.4789 10.7123 14.5522 10.6972 14.6318C10.6821 14.7114 10.6909 14.7936 10.7225 14.8682C10.7541 14.9428 10.807 15.0063 10.8747 15.0509C10.9423 15.0954 11.0216 15.1189 11.1026 15.1184H14.6225C14.8522 15.1184 15.0328 14.9379 15.0328 14.7082V11.1883C15.0332 11.1073 15.0097 11.028 14.9652 10.9604C14.9207 10.8927 14.8571 10.8397 14.7825 10.8082C14.7079 10.7766 14.6257 10.7678 14.5461 10.7829C14.4665 10.7979 14.3932 10.8363 14.3353 10.893Z" fill="#F3F3F3"/>
</svg>
