<svg width="17" height="16" viewBox="0 0 17 16" fill="none" xmlns="http://www.w3.org/2000/svg">
<path d="M12.5787 0C10.3787 0 8.57874 1.76111 8.57874 3.91358C8.57874 4.56062 8.83407 5.22071 9.16207 5.9519C9.50938 6.71264 9.89885 7.45427 10.3287 8.1735C10.8637 9.07102 11.4336 9.94809 12.0374 10.8028L12.5787 11.5777L13.1207 10.8028C13.1207 10.8028 13.9801 9.60587 14.8287 8.17415C15.2586 7.45471 15.6481 6.71286 15.9954 5.9519C16.3234 5.22071 16.5787 4.56062 16.5787 3.91358C16.5787 1.76111 14.7787 0 12.5787 0ZM5.8914 1.26408L0.578735 3.48569V16L5.93274 13.738L11.2661 15.6947L16.5787 13.4725V7.78606C16.1654 8.55063 15.7206 9.29852 15.2454 10.0279V12.6167L11.9121 14.0028V12.9428L10.9327 11.5568C10.8287 11.4087 10.7061 11.2333 10.5787 11.0467V14.0634L6.57874 12.5958V2.89474L7.30807 3.16021C7.37025 2.72576 7.48923 2.30092 7.66207 1.89613L5.8914 1.26408ZM12.5787 1.30453C14.0581 1.30453 15.2454 2.4662 15.2454 3.91358C15.2454 4.166 15.0841 4.76152 14.7867 5.42226C14.4901 6.0817 14.0707 6.83115 13.6621 7.52124C13.1181 8.43832 12.8834 8.76445 12.5787 9.21321C12.2741 8.76445 12.0394 8.43832 11.4954 7.52124C11.0867 6.83115 10.6674 6.0817 10.3701 5.42161C10.0734 4.76282 9.91207 4.166 9.91207 3.91358C9.91207 2.4662 11.0994 1.30453 12.5787 1.30453ZM5.2454 2.93518V12.6174L1.91207 14.0034V4.34146L5.2454 2.93518ZM12.5787 2.93518C12.3135 2.93518 12.0592 3.03826 11.8716 3.22175C11.6841 3.40523 11.5787 3.65409 11.5787 3.91358C11.5787 4.17306 11.6841 4.42192 11.8716 4.6054C12.0592 4.78889 12.3135 4.89197 12.5787 4.89197C12.844 4.89197 13.0983 4.78889 13.2858 4.6054C13.4734 4.42192 13.5787 4.17306 13.5787 3.91358C13.5787 3.65409 13.4734 3.40523 13.2858 3.22175C13.0983 3.03826 12.844 2.93518 12.5787 2.93518Z" fill="white"/>
</svg>
