<svg width="17" height="15" viewBox="0 0 17 15" fill="none" xmlns="http://www.w3.org/2000/svg">
<path d="M4.03013 10.9613L4.32606 10.466L4.18903 10.3852H4.03013V10.9625V10.9613ZM4.03013 4.03869V4.61596H4.18903L4.32721 4.53399L4.03013 4.03869ZM9.78747 0.57739H10.3632C10.3632 0.475253 10.3362 0.374939 10.2849 0.286685C10.2337 0.198432 10.1599 0.125399 10.0713 0.0750416C9.9827 0.0246837 9.88234 -0.00119637 9.78048 4.24764e-05C9.67862 0.00128133 9.57892 0.0295948 9.49154 0.0820933L9.78747 0.57739ZM9.78747 14.4226L9.49154 14.9179C9.57892 14.9704 9.67862 14.9987 9.78048 15C9.88234 15.0012 9.9827 14.9753 10.0713 14.925C10.1599 14.8746 10.2337 14.8016 10.2849 14.7133C10.3362 14.6251 10.3632 14.5247 10.3632 14.4226H9.78747ZM13.1728 5.45993L12.7652 5.05238L11.9511 5.86864L12.3587 6.27734L13.1716 5.45993H13.1728ZM15.6139 9.54007L16.0215 9.94762L16.8356 9.13136L16.428 8.72381L15.6139 9.54007ZM16.4291 6.27734L16.8356 5.86864L16.0215 5.05238L15.615 5.45993L16.4291 6.27734ZM12.3587 8.72381L11.9511 9.13136L12.7652 9.94762L13.1728 9.54007L12.3587 8.72381ZM4.03013 10.384H1.7272V11.5386H4.03013V10.384ZM1.7272 10.384C1.65155 10.3842 1.57662 10.3694 1.5067 10.3404C1.43678 10.3114 1.37325 10.2689 1.31976 10.2153C1.26626 10.1617 1.22386 10.098 1.19498 10.0279C1.1661 9.95775 1.15131 9.88262 1.15147 9.80677H0C0 10.765 0.772634 11.5386 1.7272 11.5386V10.384ZM1.15147 9.80677V5.19323H0V9.80908H1.15147V9.80677ZM1.15147 5.19208C1.15147 4.87343 1.40824 4.61596 1.7272 4.61596V3.46143C0.772634 3.46143 0 4.23497 0 5.19323H1.15147V5.19208ZM1.7272 4.61596H4.03013V3.46143H1.7272V4.61596ZM4.32606 4.53399L10.0834 1.07269L9.49154 0.0820933L3.73421 3.5434L4.32606 4.53399ZM9.21173 0.57739V14.4226H10.3632V0.57739H9.21173ZM10.0834 13.9273L4.32606 10.466L3.73421 11.4566L9.49154 14.9179L10.0834 13.9273ZM12.3587 6.27734L15.6139 9.54007L16.428 8.72381L13.1716 5.45993L12.3575 6.27734H12.3587ZM15.615 5.45993L12.3587 8.72381L13.1728 9.54007L16.4291 6.27734L15.615 5.45993Z" fill="#F3F3F3"/>
</svg>
