<svg width="15" height="16" viewBox="0 0 15 16" fill="none" xmlns="http://www.w3.org/2000/svg">
<path fill-rule="evenodd" clip-rule="evenodd" d="M7.55966 3.34484C7.60182 3.37747 7.65225 3.39766 7.70528 3.40314C7.7583 3.40862 7.8118 3.39916 7.85974 3.37585C7.90767 3.35254 7.94814 3.31629 7.97657 3.27119C8.00499 3.2261 8.02025 3.17396 8.02062 3.12065V2.27423C10.2865 2.27423 11.6637 2.69058 12.4929 3.52099C13.3245 4.34911 13.7397 5.72626 13.7397 7.9933C13.7397 8.14498 13.7999 8.29045 13.9072 8.3977C14.0144 8.50495 14.1599 8.56521 14.3116 8.56521C14.4633 8.56521 14.6087 8.50495 14.716 8.3977C14.8232 8.29045 14.8835 8.14498 14.8835 7.9933C14.8835 5.64162 14.4637 3.87214 13.3027 2.71117C12.1418 1.55134 10.3723 1.13042 8.02062 1.13042V0.285137C8.02046 0.231735 8.00536 0.179443 7.97702 0.134183C7.94867 0.0889233 7.90822 0.0525046 7.86025 0.0290519C7.81227 0.00559923 7.75868 -0.00395021 7.70556 0.00148519C7.65243 0.00692058 7.60189 0.0271236 7.55966 0.059806L5.73756 1.47699C5.70333 1.50374 5.67564 1.53793 5.6566 1.57697C5.63756 1.61602 5.62766 1.65888 5.62766 1.70232C5.62766 1.74576 5.63756 1.78863 5.6566 1.82767C5.67564 1.86672 5.70333 1.90091 5.73756 1.92765L7.55966 3.34598V3.34484ZM9.73634 5.70567H1.72964C1.57796 5.70567 1.43249 5.76593 1.32524 5.87318C1.21798 5.98043 1.15773 6.1259 1.15773 6.27758V14.2843C1.15773 14.436 1.21798 14.5814 1.32524 14.6887C1.43249 14.7959 1.57796 14.8562 1.72964 14.8562H9.73634C9.88802 14.8562 10.0335 14.7959 10.1407 14.6887C10.248 14.5814 10.3082 14.436 10.3082 14.2843V6.27758C10.3082 6.1259 10.248 5.98043 10.1407 5.87318C10.0335 5.76593 9.88802 5.70567 9.73634 5.70567ZM1.72964 4.56186C1.2746 4.56186 0.838199 4.74262 0.516439 5.06438C0.194679 5.38614 0.013916 5.82254 0.013916 6.27758V14.2843C0.013916 14.7393 0.194679 15.1757 0.516439 15.4975C0.838199 15.8192 1.2746 16 1.72964 16H9.73634C10.1914 16 10.6278 15.8192 10.9495 15.4975C11.2713 15.1757 11.4521 14.7393 11.4521 14.2843V6.27758C11.4521 5.82254 11.2713 5.38614 10.9495 5.06438C10.6278 4.74262 10.1914 4.56186 9.73634 4.56186H1.72964Z" fill="white"/>
</svg>
