<svg width="16" height="16" viewBox="0 0 16 16" fill="none" xmlns="http://www.w3.org/2000/svg">
<path fill-rule="evenodd" clip-rule="evenodd" d="M8.20743 3.34484C8.16527 3.37747 8.11484 3.39766 8.06181 3.40314C8.00879 3.40862 7.95529 3.39916 7.90735 3.37585C7.85942 3.35254 7.81895 3.31629 7.79052 3.27119C7.7621 3.2261 7.74684 3.17396 7.74647 3.12065V2.27423C5.48058 2.27423 4.10343 2.69058 3.27416 3.52099C2.44261 4.34911 2.0274 5.72626 2.0274 7.9933C2.0274 8.14498 1.96715 8.29045 1.8599 8.3977C1.75264 8.50495 1.60718 8.56521 1.4555 8.56521C1.30382 8.56521 1.15835 8.50495 1.0511 8.3977C0.943843 8.29045 0.883589 8.14498 0.883589 7.9933C0.883589 5.64162 1.30337 3.87214 2.46434 2.71117C3.62531 1.55134 5.39479 1.13042 7.74647 1.13042V0.285137C7.74663 0.231735 7.76173 0.179443 7.79007 0.134183C7.81842 0.0889233 7.85887 0.0525046 7.90684 0.0290519C7.95482 0.00559923 8.00841 -0.00395021 8.06153 0.00148519C8.11466 0.00692058 8.1652 0.0271236 8.20743 0.059806L10.0295 1.47699C10.0638 1.50374 10.0914 1.53793 10.1105 1.57697C10.1295 1.61602 10.1394 1.65888 10.1394 1.70232C10.1394 1.74576 10.1295 1.78863 10.1105 1.82767C10.0914 1.86672 10.0638 1.90091 10.0295 1.92765L8.20743 3.34598V3.34484ZM6.03075 5.70567H14.0375C14.1891 5.70567 14.3346 5.76593 14.4419 5.87318C14.5491 5.98043 14.6094 6.1259 14.6094 6.27758V14.2843C14.6094 14.436 14.5491 14.5814 14.4419 14.6887C14.3346 14.7959 14.1891 14.8562 14.0375 14.8562H6.03075C5.87907 14.8562 5.73361 14.7959 5.62635 14.6887C5.5191 14.5814 5.45885 14.436 5.45885 14.2843V6.27758C5.45885 6.1259 5.5191 5.98043 5.62635 5.87318C5.73361 5.76593 5.87907 5.70567 6.03075 5.70567ZM14.0375 4.56186C14.4925 4.56186 14.9289 4.74262 15.2507 5.06438C15.5724 5.38614 15.7532 5.82254 15.7532 6.27758V14.2843C15.7532 14.7393 15.5724 15.1757 15.2507 15.4975C14.9289 15.8192 14.4925 16 14.0375 16H6.03075C5.57572 16 5.13931 15.8192 4.81755 15.4975C4.49579 15.1757 4.31503 14.7393 4.31503 14.2843V6.27758C4.31503 5.82254 4.49579 5.38614 4.81755 5.06438C5.13931 4.74262 5.57572 4.56186 6.03075 4.56186H14.0375Z" fill="white"/>
</svg>
