<svg width="13" height="12" viewBox="0 0 13 12" fill="none" xmlns="http://www.w3.org/2000/svg">
<path d="M12.569 2.64501L10.069 0.145008C10.0223 0.0986676 9.96686 0.062005 9.90594 0.0371227C9.84502 0.0122404 9.77979 -0.000372089 9.71398 8.35714e-06H1.71399C1.44877 8.35714e-06 1.19442 0.105365 1.00688 0.292901C0.819346 0.480438 0.713989 0.734791 0.713989 1.00001V11C0.713989 11.2652 0.819346 11.5196 1.00688 11.7071C1.19442 11.8946 1.44877 12 1.71399 12H11.714C11.9792 12 12.2336 11.8946 12.4211 11.7071C12.6086 11.5196 12.714 11.2652 12.714 11V3.00001C12.7144 2.9342 12.7017 2.86897 12.6769 2.80805C12.652 2.74713 12.6153 2.69173 12.569 2.64501ZM4.71399 1.00001H8.71398V3.00001H4.71399V1.00001ZM8.71398 11H4.71399V7H8.71398V11ZM9.71398 11V7C9.71398 6.73479 9.60863 6.48043 9.42109 6.2929C9.23355 6.10536 8.9792 6 8.71398 6H4.71399C4.44877 6 4.19442 6.10536 4.00688 6.2929C3.81934 6.48043 3.71399 6.73479 3.71399 7V11H1.71399V1.00001H3.71399V3.00001C3.71399 3.26522 3.81934 3.51958 4.00688 3.70711C4.19442 3.89465 4.44877 4.00001 4.71399 4.00001H8.71398C8.9792 4.00001 9.23355 3.89465 9.42109 3.70711C9.60863 3.51958 9.71398 3.26522 9.71398 3.00001V1.20501L11.714 3.20501V11H9.71398Z" fill="white"/>
</svg>
