<svg width="12" height="12" viewBox="0 0 12 12" fill="none" xmlns="http://www.w3.org/2000/svg">
<path d="M3.97649 1.08H3.86399C3.92586 1.08 3.97649 1.026 3.97649 0.96V1.08H8.25149V0.96C8.25149 1.026 8.30211 1.08 8.36399 1.08H8.25149V2.16H9.26399V0.96C9.26399 0.4305 8.8604 0 8.36399 0H3.86399C3.36758 0 2.96399 0.4305 2.96399 0.96V2.16H3.97649V1.08ZM11.064 2.16H1.16399C0.915083 2.16 0.713989 2.3745 0.713989 2.64V3.12C0.713989 3.186 0.764614 3.24 0.826489 3.24H1.67586L2.02321 11.085C2.04571 11.5965 2.44227 12 2.9218 12H9.30618C9.78712 12 10.1823 11.598 10.2048 11.085L10.5521 3.24H11.4015C11.4634 3.24 11.514 3.186 11.514 3.12V2.64C11.514 2.3745 11.3129 2.16 11.064 2.16ZM9.1979 10.92H3.03008L2.68977 3.24H9.53821L9.1979 10.92Z" fill="white"/>
</svg>
