<svg width="14" height="8" viewBox="0 0 14 8" fill="none" xmlns="http://www.w3.org/2000/svg">
<path fill-rule="evenodd" clip-rule="evenodd" d="M0.498779 1.60003C0.498779 1.17568 0.66855 0.768718 0.970744 0.46866C1.27294 0.168601 1.6828 3.05287e-05 2.11017 3.05287e-05H8.15287C8.54371 -1.51208e-05 8.92124 0.140985 9.21516 0.396773C9.50909 0.652561 9.69936 1.0057 9.75056 1.39043L12.2563 0.28483C12.3789 0.230568 12.5133 0.207601 12.6471 0.218019C12.781 0.228436 12.9101 0.271907 13.0228 0.344481C13.1354 0.417054 13.228 0.516428 13.2921 0.63357C13.3562 0.750712 13.3898 0.881907 13.3899 1.01523V6.98483C13.3898 7.11805 13.3561 7.24913 13.2921 7.36618C13.228 7.48322 13.1355 7.58253 13.023 7.65508C12.9105 7.72764 12.7815 7.77114 12.6477 7.78164C12.514 7.79215 12.3797 7.76932 12.2571 7.71523L9.75056 6.60963C9.69936 6.99436 9.50909 7.3475 9.21516 7.60329C8.92124 7.85908 8.54371 8.00008 8.15287 8.00003H2.11017C1.6828 8.00003 1.27294 7.83146 0.970744 7.5314C0.66855 7.23134 0.498779 6.82438 0.498779 6.40003V1.60003Z" fill="#939EB0"/>
</svg>
