<svg width="14" height="12" viewBox="0 0 14 12" fill="none" xmlns="http://www.w3.org/2000/svg">
<path fill-rule="evenodd" clip-rule="evenodd" d="M9.82316 9.59262C10.0596 9.34248 10.2109 9.02494 10.2558 8.6848L12.8337 9.82225C12.9599 9.87808 13.0981 9.90171 13.2359 9.89099C13.3736 9.88027 13.5064 9.83555 13.6223 9.76088C13.7382 9.68622 13.8334 9.58398 13.8994 9.46347C13.9654 9.34295 13.9999 9.20798 14 9.07081V2.92925C13.9999 2.79219 13.9653 2.65733 13.8994 2.53692C13.8335 2.4165 13.7383 2.31433 13.6225 2.23969C13.5068 2.16505 13.3741 2.12029 13.2365 2.10948C13.0989 2.09868 12.9607 2.12216 12.8346 2.17781L10.2558 3.31526C10.2032 2.91944 10.0074 2.55613 9.70502 2.29298C9.40263 2.02982 9.01423 1.88476 8.61213 1.8848H4.27862L9.82399 9.59262H9.82316ZM1.43963 2.18522C1.22264 2.33731 1.04561 2.53893 0.923437 2.7731C0.801261 3.00728 0.737511 3.26716 0.737549 3.53089V8.46917C0.737549 8.90574 0.91221 9.32443 1.22311 9.63313C1.53401 9.94183 1.95568 10.1153 2.39536 10.1153H7.14331L1.43963 2.18604V2.18522ZM9.51812 12L1.22909 0.477397L1.90382 3.05176e-05L10.1928 11.5227L9.51812 12Z" fill="#939EB0"/>
</svg>
