<svg width="11" height="11" viewBox="0 0 11 11" fill="none" xmlns="http://www.w3.org/2000/svg">
<path d="M7.17328 5.49929L10.7537 1.92723C10.9104 1.77044 10.9985 1.55779 10.9985 1.33605C10.9985 1.11432 10.9104 0.901665 10.7537 0.744875C10.5969 0.588084 10.3842 0.5 10.1625 0.5C9.94075 0.5 9.72809 0.588084 9.5713 0.744875L5.99925 4.32526L2.42719 0.744875C2.2704 0.588084 2.05775 0.5 1.83601 0.5C1.61427 0.5 1.40162 0.588084 1.24483 0.744875C1.08804 0.901665 0.999956 1.11432 0.999956 1.33605C0.999956 1.55779 1.08804 1.77044 1.24483 1.92723L4.82521 5.49929L1.24483 9.07135C1.16679 9.14875 1.10484 9.24084 1.06257 9.34231C1.0203 9.44377 0.998535 9.55261 0.998535 9.66253C0.998535 9.77244 1.0203 9.88128 1.06257 9.98274C1.10484 10.0842 1.16679 10.1763 1.24483 10.2537C1.32224 10.3317 1.41433 10.3937 1.51579 10.436C1.61726 10.4782 1.72609 10.5 1.83601 10.5C1.94593 10.5 2.05476 10.4782 2.15623 10.436C2.25769 10.3937 2.34978 10.3317 2.42719 10.2537L5.99925 6.67332L9.5713 10.2537C9.64871 10.3317 9.7408 10.3937 9.84226 10.436C9.94373 10.4782 10.0526 10.5 10.1625 10.5C10.2724 10.5 10.3812 10.4782 10.4827 10.436C10.5842 10.3937 10.6763 10.3317 10.7537 10.2537C10.8317 10.1763 10.8936 10.0842 10.9359 9.98274C10.9782 9.88128 11 9.77244 11 9.66253C11 9.55261 10.9782 9.44377 10.9359 9.34231C10.8936 9.24084 10.8317 9.14875 10.7537 9.07135L7.17328 5.49929Z" fill="#E63C2B"/>
</svg>
