<svg width="13" height="13" viewBox="0 0 13 13" fill="none" xmlns="http://www.w3.org/2000/svg">
<path d="M6.4631 9.03977C6.47597 9.05607 6.4924 9.06925 6.51116 9.07832C6.52993 9.08738 6.55052 9.09209 6.57139 9.09209C6.59226 9.09209 6.61286 9.08738 6.63162 9.07832C6.65038 9.06925 6.66682 9.05607 6.67968 9.03977L8.60482 6.62443C8.67529 6.5358 8.61169 6.40455 8.49653 6.40455H7.22285V0.636364C7.22285 0.561364 7.16097 0.5 7.08534 0.5H6.05401C5.97838 0.5 5.9165 0.561364 5.9165 0.636364V6.40284H4.64626C4.5311 6.40284 4.4675 6.53409 4.53797 6.62273L6.4631 9.03977ZM12.8625 8.44318H11.8311C11.7555 8.44318 11.6936 8.50455 11.6936 8.57955V11.2045H1.44916V8.57955C1.44916 8.50455 1.38728 8.44318 1.31165 8.44318H0.280332C0.204702 8.44318 0.142822 8.50455 0.142822 8.57955V11.9545C0.142822 12.2562 0.388621 12.5 0.69286 12.5H12.4499C12.7542 12.5 13 12.2562 13 11.9545V8.57955C13 8.50455 12.9381 8.44318 12.8625 8.44318Z" fill="#0959A0"/>
</svg>
