<svg width="15" height="12" viewBox="0 0 15 12" fill="none" xmlns="http://www.w3.org/2000/svg">
<path d="M12.9653 2.19231H10.8495L10.3454 0.82033C10.3106 0.726449 10.2468 0.645299 10.1627 0.587966C10.0786 0.530633 9.97832 0.499912 9.87558 0.5H5.10246C4.89243 0.5 4.70418 0.628434 4.63417 0.82033L4.12854 2.19231H2.01269C1.32503 2.19231 0.768066 2.73324 0.768066 3.4011V10.2912C0.768066 10.9591 1.32503 11.5 2.01269 11.5H12.9653C13.653 11.5 14.21 10.9591 14.21 10.2912V3.4011C14.21 2.73324 13.653 2.19231 12.9653 2.19231ZM7.48902 9.08242C6.11371 9.08242 4.99978 8.00055 4.99978 6.66483C4.99978 5.32912 6.11371 4.24725 7.48902 4.24725C8.86432 4.24725 9.97826 5.32912 9.97826 6.66483C9.97826 8.00055 8.86432 9.08242 7.48902 9.08242ZM5.99547 6.66483C5.99547 7.04954 6.15283 7.4185 6.43292 7.69053C6.71302 7.96256 7.09291 8.11538 7.48902 8.11538C7.88513 8.11538 8.26502 7.96256 8.54511 7.69053C8.82521 7.4185 8.98256 7.04954 8.98256 6.66483C8.98256 6.28013 8.82521 5.91117 8.54511 5.63914C8.26502 5.36711 7.88513 5.21429 7.48902 5.21429C7.09291 5.21429 6.71302 5.36711 6.43292 5.63914C6.15283 5.91117 5.99547 6.28013 5.99547 6.66483Z" fill="#00ABE1"/>
</svg>