<svg width="13" height="11" viewBox="0 0 13 11" fill="none" xmlns="http://www.w3.org/2000/svg">
<path d="M1.62773 9.63381H8.75513L6.90533 8.06939C6.74781 8.09471 6.58805 8.1088 6.42773 8.11151C4.80173 8.11151 3.42773 6.94948 3.42773 5.57434C3.42773 5.43682 3.45113 5.30286 3.47753 5.17042L0.514134 2.66421C0.460134 2.7799 0.427734 2.90524 0.427734 3.03717V8.61894C0.427734 9.17864 0.965934 9.63381 1.62773 9.63381ZM11.2277 2.0223H9.67613L8.05193 0.648679C7.99631 0.601466 7.9302 0.564023 7.85739 0.538507C7.78459 0.51299 7.70654 0.499904 7.62773 0.500001H5.22773C5.14893 0.499904 5.07088 0.51299 4.99808 0.538507C4.92527 0.564023 4.85916 0.601466 4.80353 0.648679L3.17933 2.0223H3.07613L1.45193 0.648679L0.603534 1.36619L11.4035 10.5L12.2519 9.78249L11.8763 9.46483C12.0449 9.37437 12.1837 9.24945 12.2801 9.1016C12.3765 8.95376 12.4273 8.78776 12.4277 8.61894V3.03717C12.4277 2.47747 11.8895 2.0223 11.2277 2.0223ZM8.04053 6.22081C8.16131 6.02049 8.22539 5.79918 8.22773 5.57434C8.22773 4.74925 7.40333 4.05204 6.42773 4.05204C6.15413 4.05204 5.89733 4.11293 5.66333 4.21036L4.78733 3.4695C5.27071 3.1899 5.84212 3.0393 6.42773 3.03717C8.05373 3.03717 9.42773 4.19919 9.42773 5.57434C9.42522 6.06961 9.24715 6.55286 8.91654 6.96166L8.04053 6.22081V6.22081Z" fill="#939EB0"/>
</svg>