<svg width="15" height="12" viewBox="0 0 15 12" fill="none" xmlns="http://www.w3.org/2000/svg">
<path d="M12.9971 2.19237H10.8812L10.3772 0.820391C10.3423 0.72651 10.2785 0.64536 10.1944 0.588027C10.1103 0.530694 10.0101 0.499973 9.90732 0.500061H5.1342C4.92417 0.500061 4.73592 0.628495 4.66591 0.820391L4.16028 2.19237H2.04443C1.35677 2.19237 0.799805 2.7333 0.799805 3.40116V10.2913C0.799805 10.9591 1.35677 11.5001 2.04443 11.5001H12.9971C13.6847 11.5001 14.2417 10.9591 14.2417 10.2913V3.40116C14.2417 2.7333 13.6847 2.19237 12.9971 2.19237ZM7.52076 9.08248C6.14545 9.08248 5.03152 8.00061 5.03152 6.6649C5.03152 5.32918 6.14545 4.24731 7.52076 4.24731C8.89606 4.24731 10.01 5.32918 10.01 6.6649C10.01 8.00061 8.89606 9.08248 7.52076 9.08248ZM6.02721 6.6649C6.02721 7.04961 6.18457 7.41856 6.46466 7.69059C6.74475 7.96262 7.12464 8.11545 7.52076 8.11545C7.91687 8.11545 8.29676 7.96262 8.57685 7.69059C8.85695 7.41856 9.0143 7.04961 9.0143 6.6649C9.0143 6.28019 8.85695 5.91123 8.57685 5.6392C8.29676 5.36717 7.91687 5.21435 7.52076 5.21435C7.12464 5.21435 6.74475 5.36717 6.46466 5.6392C6.18457 5.91123 6.02721 6.28019 6.02721 6.6649Z" fill="#939EB0"/>
</svg>