<svg width="18" height="13" viewBox="0 0 18 13" fill="none" xmlns="http://www.w3.org/2000/svg">
<path d="M10.2842 12.5004V9.07185H12.8557L9.42711 4.78613L5.99854 9.07185H8.56996V12.5004H10.2842Z" fill="#00ABE1"/>
<path d="M5.14143 12.5H6.85571V10.7857H5.14143C3.72371 10.7857 2.57 9.632 2.57 8.21429C2.57 7.01086 3.59771 5.852 4.86114 5.63L5.35914 5.54257L5.52371 5.06429C6.12628 3.30629 7.62286 2.21429 9.42714 2.21429C11.7903 2.21429 13.7129 4.13686 13.7129 6.5V7.35714H14.57C15.5154 7.35714 16.2843 8.126 16.2843 9.07143C16.2843 10.0169 15.5154 10.7857 14.57 10.7857H11.9986V12.5H14.57C16.4609 12.5 17.9986 10.9623 17.9986 9.07143C17.9973 8.30309 17.7385 7.55735 17.2637 6.95328C16.7889 6.34921 16.1254 5.92165 15.3791 5.73886C15.0046 2.78857 12.4786 0.5 9.42714 0.5C7.06486 0.5 5.01286 1.88086 4.076 4.05714C2.23486 4.60743 0.855713 6.34571 0.855713 8.21429C0.855713 10.5774 2.77828 12.5 5.14143 12.5Z" fill="#00ABE1"/>
</svg>
