<svg width="16" height="15" viewBox="0 0 16 15" fill="none" xmlns="http://www.w3.org/2000/svg">
<rect width="15.0972" height="15" rx="2" transform="matrix(1 0 0 -1 0.702637 15.0001)" fill="#939EB0"/>
<path d="M3.82169 3.09877C3.76416 3.15591 3.72918 3.23167 3.72311 3.31227C3.71705 3.39287 3.74029 3.47296 3.78863 3.53797L3.82169 3.57577L5.64877 5.39155C4.75789 6.01194 4.12192 6.93059 3.85747 7.97908C3.83708 8.06539 3.85169 8.15621 3.89814 8.23191C3.9446 8.3076 4.01917 8.3621 4.10573 8.38362C4.1923 8.40513 4.28391 8.39194 4.36077 8.3469C4.43762 8.30185 4.49355 8.22857 4.51647 8.14288C4.75149 7.21227 5.33033 6.40359 6.13793 5.87755L6.95772 6.69206C6.63025 7.03204 6.44981 7.48591 6.45503 7.95646C6.46025 8.427 6.65073 8.87681 6.98566 9.20952C7.3206 9.54224 7.77335 9.73141 8.24695 9.73652C8.72054 9.74163 9.17732 9.56226 9.51944 9.23685L12.2003 11.9009C12.2609 11.9613 12.3423 11.9966 12.428 11.9998C12.5138 12.003 12.5976 11.9738 12.6626 11.9182C12.7276 11.8625 12.769 11.7844 12.7784 11.6996C12.7879 11.6148 12.7646 11.5297 12.7134 11.4612L12.6804 11.4234L9.91167 8.67209L9.91212 8.67119L6.76432 5.54545L6.76523 5.54455L6.25207 5.03604L4.30179 3.09877C4.23809 3.03556 4.15176 3.00006 4.06174 3.00006C3.97172 3.00006 3.88538 3.03556 3.82169 3.09877ZM8.25126 4.57478C7.79834 4.57478 7.35901 4.64139 6.94277 4.76604L7.50303 5.32224C8.47208 5.1316 9.47781 5.31823 10.3123 5.84354C11.1467 6.36886 11.7461 7.19268 11.9865 8.14468C12.01 8.2297 12.066 8.30222 12.1426 8.34674C12.2192 8.39126 12.3102 8.40423 12.3963 8.38289C12.4824 8.36155 12.5567 8.30759 12.6033 8.23255C12.6498 8.1575 12.665 8.06734 12.6455 7.98133C12.3999 7.00817 11.8341 6.14443 11.038 5.52726C10.2419 4.91008 9.26105 4.57485 8.25126 4.57478ZM8.33958 6.15431L10.0611 7.86433C10.0389 7.41788 9.85033 6.9956 9.53216 6.67956C9.21399 6.36353 8.78893 6.17631 8.33958 6.15431Z" fill="white"/>
</svg>
