<svg width="16" height="15" viewBox="0 0 16 15" fill="none" xmlns="http://www.w3.org/2000/svg">
<rect width="15.0972" height="15" rx="2" transform="matrix(1 0 0 -1 0.702637 15.0001)" fill="#00ABE1"/>
<path d="M4.69795 7.65906C4.65289 7.78127 4.56165 7.88121 4.44362 7.93764C4.32558 7.99407 4.19005 8.00256 4.06582 7.96128C3.94159 7.92001 3.83845 7.83223 3.77832 7.71661C3.71819 7.60098 3.70581 7.46661 3.7438 7.34206C3.73374 7.37206 3.7438 7.34106 3.7438 7.34106C3.76175 7.28602 3.78258 7.23194 3.80621 7.17906C3.84646 7.08406 3.90585 6.95306 3.98737 6.79806C4.15243 6.48806 4.41211 6.07506 4.79255 5.66206C5.56452 4.82706 6.82564 4.00006 8.75003 4.00006C10.6754 4.00006 11.9365 4.82706 12.7065 5.66206C13.1176 6.10997 13.4509 6.62261 13.6928 7.17906C13.713 7.22606 13.7281 7.26406 13.7381 7.29206C13.7422 7.30006 13.7522 7.35206 13.7623 7.40206C13.7713 7.44806 13.7794 7.49206 13.7824 7.50006C13.7824 7.50006 13.867 7.83306 13.4382 7.97406C13.3119 8.01596 13.1741 8.00644 13.0549 7.94759C12.9357 7.88874 12.8448 7.78535 12.8021 7.66006V7.65706L12.7951 7.64106C12.7445 7.5126 12.6867 7.38707 12.622 7.26506C12.4433 6.92963 12.2225 6.61814 11.9647 6.33806C11.3508 5.67306 10.3473 5.00006 8.75003 5.00006C7.15275 5.00006 6.14929 5.67306 5.53534 6.33806C5.20294 6.70013 4.93262 7.11397 4.73518 7.56306C4.72462 7.58887 4.71455 7.61487 4.70499 7.64106L4.69795 7.65906V7.65906Z" fill="white"/>
<path d="M6.73706 8.00006C6.73706 7.46963 6.94914 6.96092 7.32664 6.58585C7.70414 6.21077 8.21615 6.00006 8.75002 6.00006C9.28388 6.00006 9.79589 6.21077 10.1734 6.58585C10.5509 6.96092 10.763 7.46963 10.763 8.00006C10.763 8.53049 10.5509 9.0392 10.1734 9.41427C9.79589 9.78935 9.28388 10.0001 8.75002 10.0001C8.21615 10.0001 7.70414 9.78935 7.32664 9.41427C6.94914 9.0392 6.73706 8.53049 6.73706 8.00006V8.00006Z" fill="white"/>
</svg>
