<svg width="336" height="188" viewBox="0 0 336 188" fill="none" xmlns="http://www.w3.org/2000/svg">
<rect width="336" height="188" fill="#F3F3F3"/>
<path d="M152.35 89.4897C155.057 89.4897 157.251 87.2953 157.251 84.5884C157.251 81.8814 155.057 79.687 152.35 79.687C149.643 79.687 147.449 81.8814 147.449 84.5884C147.449 87.2953 149.643 89.4897 152.35 89.4897Z" fill="#CED6E0"/>
<path d="M162.821 100.481L157.697 93.6484L147.449 107.313H188.442L173.069 86.8162L162.821 100.481Z" fill="#CED6E0"/>
<path d="M194.948 65.4285H140.052C136.268 65.4285 133.19 68.526 133.19 72.3349V113.774C133.19 117.583 136.268 120.68 140.052 120.68H194.948C198.732 120.68 201.809 117.583 201.809 113.774V72.3349C201.809 68.526 198.732 65.4285 194.948 65.4285ZM140.052 113.774V72.3349H194.948L194.954 113.774H140.052Z" fill="#CED6E0"/>
</svg>