<svg width="14" height="15" viewBox="0 0 14 15" fill="none" xmlns="http://www.w3.org/2000/svg">
<path d="M4.56 1.69599H4.42C4.497 1.69599 4.56 1.63119 4.56 1.55199V1.69599H9.88V1.55199C9.88 1.63119 9.943 1.69599 10.02 1.69599H9.88V2.99199H11.14V1.55199C11.14 0.916594 10.6377 0.399994 10.02 0.399994H4.42C3.80225 0.399994 3.3 0.916594 3.3 1.55199V2.99199H4.56V1.69599ZM13.38 2.99199H1.06C0.75025 2.99199 0.5 3.24939 0.5 3.56799V4.14399C0.5 4.22319 0.563 4.28799 0.64 4.28799H1.697L2.12925 13.702C2.15725 14.3158 2.65075 14.8 3.2475 14.8H11.1925C11.791 14.8 12.2828 14.3176 12.3108 13.702L12.743 4.28799H13.8C13.877 4.28799 13.94 4.22319 13.94 4.14399V3.56799C13.94 3.24939 13.6897 2.99199 13.38 2.99199ZM11.0577 13.504H3.38225L2.95875 4.28799H11.4812L11.0577 13.504Z" fill="white"/>
</svg>
