<svg width="12" height="15" viewBox="0 0 12 15" fill="none" xmlns="http://www.w3.org/2000/svg">
<path d="M9.22115 4.40001V3.70001C9.22115 1.77011 7.64202 0.200012 5.70103 0.200012C3.76004 0.200012 2.18092 1.77011 2.18092 3.70001V5.80001H1.47689C0.700356 5.80001 0.0688477 6.42791 0.0688477 7.20001V12.8C0.0688477 13.5721 0.700356 14.2 1.47689 14.2H9.92517C10.7017 14.2 11.3332 13.5721 11.3332 12.8V7.20001C11.3332 6.42791 10.7017 5.80001 9.92517 5.80001H3.58896V3.70001C3.58896 2.54221 4.53658 1.60001 5.70103 1.60001C6.86549 1.60001 7.8131 2.54221 7.8131 3.70001V4.40001H9.22115ZM9.92517 7.20001L9.92658 12.8H1.47689V7.20001H9.92517Z" fill="white"/>
</svg>
