<svg width="101" height="31" viewBox="0 0 101 31" fill="none" xmlns="http://www.w3.org/2000/svg">
<g clip-path="url(#clip0_17480_65805)">
<path d="M97.2546 0.5H3.74539C1.67687 0.5 0 2.1811 0 4.25484V26.7452C0 28.8189 1.67687 30.5 3.74539 30.5H97.2546C99.3231 30.5 101 28.8189 101 26.7452V4.25484C101 2.1811 99.3231 0.5 97.2546 0.5Z" fill="white"/>
<path d="M97.2546 1.1C98.0875 1.10256 98.8855 1.43608 99.4736 2.02745C100.062 2.61881 100.392 3.4198 100.392 4.25484V26.7548C100.389 27.5899 100.057 28.3898 99.4667 28.9794C98.8769 29.5689 98.0779 29.9 97.245 29.9H3.74539C2.91245 29.9 2.11348 29.5689 1.5236 28.9794C0.93372 28.3898 0.601045 27.5899 0.59849 26.7548V4.25484C0.59849 3.41812 0.930037 2.61568 1.5202 2.02403C2.11035 1.43238 2.91078 1.1 3.74539 1.1H97.2546ZM97.2546 0.5H3.74539C2.75205 0.5 1.7994 0.895598 1.097 1.59977C0.394602 2.30394 0 3.25899 0 4.25484L0 26.7548C0.00255585 27.749 0.398286 28.7016 1.10041 29.4037C1.80253 30.1057 2.75372 30.5 3.74539 30.5H97.2546C98.2455 30.4975 99.1952 30.1024 99.8968 29.4008C100.598 28.6993 100.995 27.7482 101 26.7548V4.25484C100.997 3.25978 100.602 2.3062 99.9002 1.60259C99.1983 0.898973 98.2472 0.502555 97.2546 0.5V0.5Z" fill="#A6A6A6"/>
<path d="M26.3339 20.8226C25.9329 21.7913 25.4383 22.7183 24.857 23.5903C23.8917 25.0613 22.5402 26.8806 20.8703 26.9C19.374 26.9 18.9976 25.9322 17.009 25.9322C15.0205 25.9322 14.5668 26.9 13.0706 26.9C11.391 26.9 10.1167 25.2355 9.15144 23.7742C6.46789 19.6709 6.18795 14.8613 7.83862 12.3064C8.34203 11.4611 9.04612 10.7537 9.88821 10.2472C10.7303 9.74062 11.6843 9.4507 12.6652 9.4032C14.4413 9.4032 15.5611 10.3709 17.0283 10.3709C18.4956 10.3709 19.3258 9.4032 21.3819 9.4032C22.2358 9.44133 23.0708 9.66849 23.8268 10.0684C24.5829 10.4683 25.2412 11.031 25.7547 11.7161C24.9084 12.1696 24.2101 12.8576 23.7432 13.6981C23.2763 14.5386 23.0604 15.4961 23.1215 16.4562C23.1826 17.4163 23.5179 18.3385 24.0875 19.1127C24.6572 19.8869 25.437 20.4805 26.3339 20.8226Z" fill="#959595"/>
<path d="M19.7404 7.79678C20.1598 7.28272 20.4738 6.69065 20.6643 6.05458C20.8548 5.41852 20.9181 4.75099 20.8505 4.09033C19.4975 4.25458 18.2563 4.92514 17.3754 5.96775C16.9439 6.45585 16.6195 7.02941 16.4233 7.65125C16.227 8.27309 16.1634 8.92933 16.2363 9.57743C16.916 9.56216 17.5837 9.39427 18.1901 9.0861C18.7965 8.77794 19.3263 8.33736 19.7404 7.79678Z" fill="#959595"/>
<path d="M35.5136 12.2484L31.6523 23.6097H33.4092L34.5579 20.1162H38.284L39.4713 23.6097H41.2764L37.4152 12.2484H35.5136ZM36.4789 14.1162C36.614 14.6291 36.7492 15.1516 36.9326 15.7226L37.9654 18.7323H34.9633L35.9866 15.7033C36.141 15.2097 36.2955 14.6774 36.4306 14.1162H36.4789Z" fill="black"/>
<path d="M46.2772 15.2001C45.7511 15.1752 45.2271 15.2816 44.752 15.5096C44.277 15.7376 43.8657 16.0801 43.5551 16.5065L43.4875 15.3743H41.9141V15.5194C41.9141 16.2259 41.9816 17.0001 41.9816 18.113V26.8226H43.6999V22.7581C43.9957 23.08 44.3579 23.3333 44.7614 23.5005C45.1648 23.6676 45.5998 23.7445 46.0359 23.7259C46.5214 23.7323 47.0029 23.6376 47.4499 23.4477C47.8969 23.2578 48.2996 22.9768 48.6326 22.6226C49.4268 21.713 49.8385 20.5302 49.7813 19.3226C49.8269 18.2333 49.4848 17.1631 48.816 16.3033C48.5002 15.9431 48.1088 15.6574 47.6699 15.4666C47.2309 15.2759 46.7554 15.1849 46.2772 15.2001ZM45.8525 16.6226C47.3777 16.6226 48.0631 18.0355 48.0631 19.4388C48.0631 21.2581 47.1943 22.342 45.7849 22.342C45.3289 22.3462 44.8841 22.1996 44.5194 21.925C44.1548 21.6504 43.8905 21.263 43.7675 20.8226C43.7255 20.6419 43.706 20.4566 43.7095 20.271V18.8872C43.7017 18.7453 43.7017 18.6032 43.7095 18.4614V18.3259C43.8146 17.837 44.0857 17.3999 44.4766 17.0893C44.8674 16.7786 45.3538 16.6137 45.8525 16.6226Z" fill="black"/>
<path d="M55.0996 15.2001C54.5735 15.1752 54.0495 15.2816 53.5744 15.5096C53.0994 15.7376 52.6881 16.0801 52.3775 16.5065L52.3099 15.3743H50.7461V15.5194C50.7461 16.2259 50.8137 17.0001 50.8137 18.113V26.8226H52.5319V22.7581C52.8277 23.08 53.1899 23.3333 53.5934 23.5005C53.9968 23.6676 54.4318 23.7445 54.868 23.7259C55.3547 23.7313 55.8373 23.6362 56.2857 23.4464C56.7342 23.2566 57.1388 22.9762 57.4743 22.6226C58.2615 21.7094 58.6692 20.5283 58.6133 19.3226C58.6641 18.2326 58.3214 17.1607 57.648 16.3033C57.3312 15.9418 56.9382 15.6553 56.4975 15.4646C56.0568 15.2738 55.5794 15.1834 55.0996 15.2001ZM54.6749 16.6226C56.2001 16.6226 56.8854 18.0355 56.8854 19.4388C56.8854 21.2581 56.0167 22.342 54.6073 22.342C54.1512 22.3462 53.7065 22.1996 53.3418 21.925C52.9771 21.6504 52.7129 21.263 52.5898 20.8226C52.5479 20.6419 52.5284 20.4566 52.5319 20.271V18.8872C52.5235 18.7453 52.5235 18.6032 52.5319 18.4614V18.3259C52.637 17.837 52.9081 17.3999 53.299 17.0893C53.6898 16.7786 54.1762 16.6137 54.6749 16.6226Z" fill="black"/>
<path d="M66.1527 17.0678C64.5599 16.4387 64.0483 15.9839 64.0483 15.0162C64.0483 14.0484 64.6468 13.4871 65.9789 13.4871C66.6841 13.4726 67.3803 13.6462 67.9964 13.9904L68.1412 14.0871L68.6239 12.6549L68.5274 12.5968C67.7533 12.221 66.8949 12.0542 66.0369 12.1129C63.8553 12.1129 62.3301 13.4 62.3301 15.2581C62.3301 16.7484 63.2954 17.7936 65.3418 18.5387C66.7898 19.0807 67.3304 19.642 67.3304 20.6C67.3304 21.5581 66.5002 22.3516 65.1584 22.3516C64.2861 22.3542 63.4303 22.1129 62.6872 21.6549L62.5328 21.5581L62.0791 23.0194L62.1563 23.0774C63.0418 23.5711 64.0391 23.8277 65.0522 23.8226C68.0061 23.8226 69.0486 22.0226 69.0486 20.4839C69.0486 18.9452 68.2088 17.9194 66.1527 17.0678Z" fill="black"/>
<path d="M72.1273 13.4193L70.4669 13.9516V15.3741H69.2217V16.7483H70.4669V20.958C70.3943 21.7328 70.6072 22.5073 71.0654 23.1354C71.28 23.3533 71.5377 23.5236 71.8221 23.6353C72.1064 23.747 72.411 23.7976 72.7161 23.7838C73.1683 23.7907 73.6185 23.722 74.0482 23.5806H74.1447L74.0386 22.1774L73.8745 22.2258C73.6137 22.2972 73.3432 22.3266 73.0732 22.3129C72.4168 22.3129 72.1079 21.8967 72.1079 20.9096V16.7483H74.1737V15.3741H72.1273V13.4193Z" fill="black"/>
<path d="M78.4409 15.2C77.8812 15.1929 77.3261 15.3028 76.8111 15.5229C76.2962 15.743 75.8327 16.0684 75.4502 16.4782C75.0678 16.888 74.7748 17.3733 74.59 17.9031C74.4052 18.4328 74.3327 18.9954 74.377 19.5549C74.3264 20.0991 74.3914 20.6478 74.5675 21.1651C74.7437 21.6823 75.0272 22.1563 75.3992 22.5558C75.7713 22.9553 76.2235 23.2712 76.7261 23.4829C77.2288 23.6946 77.7704 23.7972 78.3155 23.7839C78.8774 23.7911 79.4346 23.6807 79.9514 23.4595C80.4683 23.2384 80.9333 22.9114 81.3168 22.4996C81.7003 22.0878 81.9938 21.6003 82.1784 21.0682C82.3631 20.5361 82.4348 19.9712 82.389 19.4097C82.4284 18.2939 82.0378 17.2058 81.2983 16.371C80.9279 15.9893 80.483 15.6883 79.9914 15.4868C79.4998 15.2853 78.9719 15.1877 78.4409 15.2ZM78.3927 16.5549C79.9372 16.5549 80.6418 18.0549 80.6418 19.4581C80.6418 21.1807 79.6765 22.429 78.3637 22.429C77.0606 22.429 76.1242 21.2 76.1242 19.5258C76.1049 18.0355 76.8096 16.5549 78.3927 16.5549Z" fill="black"/>
<path d="M87.6495 15.2774H87.5433C87.4046 15.2417 87.2617 15.2254 87.1186 15.229C86.6675 15.2283 86.2252 15.3539 85.8415 15.5915C85.4578 15.8292 85.1479 16.1695 84.9466 16.5742V15.3742H83.3828V15.5193C83.3828 16.1967 83.4504 16.9613 83.4504 17.9967V23.6096H85.1686V19.2258C85.1484 19.0036 85.1484 18.7801 85.1686 18.558C85.2177 18.1049 85.4247 17.6837 85.7531 17.3686C86.0816 17.0535 86.5104 16.8647 86.9641 16.8354C87.1184 16.8249 87.2732 16.8249 87.4274 16.8354H87.6109L87.6495 15.2774Z" fill="black"/>
<path d="M91.5017 15.1807C89.2236 15.1807 87.6405 17.0097 87.6405 19.6226C87.5998 20.1716 87.6765 20.723 87.8652 21.2399C88.054 21.7569 88.3506 22.2275 88.7352 22.6205C89.1199 23.0134 89.5836 23.3195 90.0957 23.5185C90.6077 23.7174 91.1561 23.8046 91.7044 23.7742C92.6351 23.7928 93.5594 23.6148 94.4169 23.2516L94.5231 23.2032L94.1949 21.9258L94.0501 21.9839C93.365 22.2527 92.633 22.3811 91.8975 22.3613C91.5563 22.3956 91.2118 22.3552 90.8877 22.2428C90.5637 22.1303 90.2679 21.9486 90.0209 21.7102C89.7739 21.4717 89.5815 21.1823 89.4572 20.862C89.3329 20.5416 89.2795 20.198 89.3008 19.8549H94.8224V19.7387C94.8417 19.5004 94.8417 19.2609 94.8224 19.0226C94.8996 17.271 94.0115 15.1807 91.5017 15.1807ZM91.3859 16.4871C91.6204 16.4701 91.8558 16.5027 92.077 16.5827C92.2981 16.6628 92.5001 16.7884 92.6697 16.9516C93.0537 17.3948 93.2661 17.9614 93.2682 18.5484H89.407C89.4329 18.0232 89.6476 17.5251 90.0114 17.1462C90.3751 16.7673 90.8633 16.5332 91.3859 16.4871Z" fill="black"/>
<path d="M33.1973 5.95808C33.5938 5.90142 33.9937 5.87232 34.3942 5.87098C35.0213 5.82128 35.646 5.9924 36.1608 6.35485C36.365 6.52698 36.527 6.74397 36.6342 6.989C36.7413 7.23403 36.7907 7.5005 36.7786 7.76775C36.7873 8.05255 36.7359 8.33598 36.6278 8.59948C36.5197 8.86298 36.3572 9.10061 36.1511 9.29679C35.5928 9.7044 34.9097 9.90301 34.2205 9.85808C33.8787 9.86417 33.5369 9.848 33.1973 9.80969V5.95808ZM33.7861 9.42259C33.9756 9.43919 34.1662 9.43919 34.3556 9.42259C35.5526 9.42259 36.1994 8.81291 36.1994 7.75808C36.1994 6.70324 35.6105 6.30646 34.4232 6.30646C34.2113 6.28744 33.998 6.28744 33.7861 6.30646V9.42259Z" fill="black"/>
<path d="M38.7859 9.88707C38.5903 9.89926 38.3944 9.87044 38.2106 9.80246C38.0268 9.73447 37.8591 9.6288 37.7183 9.49221C37.5775 9.35561 37.4667 9.19108 37.3929 9.00913C37.3191 8.82718 37.2839 8.63179 37.2897 8.43546C37.2838 8.23317 37.3202 8.0319 37.3966 7.84456C37.4729 7.65722 37.5875 7.48794 37.7329 7.34761C37.8783 7.20727 38.0514 7.09897 38.2411 7.02966C38.4307 6.96035 38.6328 6.93156 38.8342 6.94513C39.03 6.9301 39.2268 6.95656 39.4118 7.02279C39.5967 7.08902 39.7657 7.19353 39.9078 7.32953C40.0498 7.46553 40.1617 7.62998 40.2362 7.81218C40.3106 7.99438 40.346 8.19025 40.34 8.38707C40.3458 8.58975 40.3093 8.79142 40.2331 8.97923C40.1569 9.16704 40.0425 9.33689 39.8972 9.47797C39.7519 9.61905 39.579 9.72829 39.3893 9.79872C39.1996 9.86915 38.9974 9.89924 38.7955 9.88707H38.7859ZM38.7859 9.49997C38.9239 9.50115 39.0606 9.47262 39.1868 9.41632C39.3129 9.36002 39.4255 9.27725 39.517 9.1736C39.6085 9.06996 39.6767 8.94784 39.7171 8.81549C39.7575 8.68315 39.7691 8.54365 39.7512 8.40642C39.7512 8.14976 39.6495 7.90361 39.4685 7.72213C39.2874 7.54064 39.0419 7.43868 38.7859 7.43868C38.5299 7.43868 38.2843 7.54064 38.1033 7.72213C37.9223 7.90361 37.8206 8.14976 37.8206 8.40642C37.8041 8.54291 37.8169 8.68135 37.8579 8.81251C37.899 8.94368 37.9675 9.06456 38.0589 9.16711C38.1502 9.26966 38.2623 9.35153 38.3876 9.40725C38.513 9.46298 38.6488 9.49129 38.7859 9.4903V9.49997Z" fill="black"/>
<path d="M41.2381 7.00317L41.6532 8.43543C41.7401 8.74511 41.827 9.04511 41.8849 9.33543C41.9525 9.04511 42.0586 8.74511 42.1552 8.43543L42.6668 7.00317H43.1398L43.6321 8.41608C43.7409 8.73312 43.8311 9.05625 43.9024 9.38382C43.9643 9.05688 44.0449 8.73377 44.1437 8.41608L44.5878 7.00317H45.1476L44.1823 9.8193H43.6707L43.1881 8.48382C43.0819 8.15479 42.9853 7.88382 42.9081 7.51608C42.8346 7.84409 42.7411 8.16728 42.6282 8.48382L42.1262 9.8193H41.605L40.6396 7.00317H41.2381Z" fill="black"/>
<path d="M45.7559 7.76779C45.7559 7.47746 45.7559 7.2452 45.7559 7.00327H46.2578V7.46779C46.3714 7.29748 46.5273 7.15975 46.7101 7.06813C46.8929 6.9765 47.0963 6.93414 47.3003 6.9452C47.4559 6.93681 47.6114 6.96283 47.7559 7.02144C47.9003 7.08004 48.0301 7.16979 48.136 7.28431C48.2419 7.39884 48.3215 7.53533 48.3689 7.68411C48.4163 7.83289 48.4305 7.99031 48.4105 8.14521V9.8194H47.8409V8.24198C47.8409 7.78714 47.6575 7.40004 47.1169 7.40004C46.9532 7.39959 46.7933 7.44943 46.6587 7.54286C46.524 7.63629 46.4212 7.76883 46.364 7.92262C46.3486 8.00253 46.3486 8.08465 46.364 8.16456V9.8194H45.7559V7.76779Z" fill="black"/>
<path d="M49.3271 5.69678H49.8967V9.81936H49.3271V5.69678Z" fill="black"/>
<path d="M52.1267 9.88709C51.9312 9.89929 51.7352 9.87047 51.5514 9.80248C51.3676 9.73449 51.1999 9.62883 51.0591 9.49223C50.9183 9.35563 50.8075 9.19111 50.7337 9.00915C50.6599 8.8272 50.6247 8.63182 50.6305 8.43548C50.6251 8.23748 50.6602 8.04047 50.7336 7.85657C50.807 7.67268 50.9172 7.50579 51.0574 7.36618C51.1975 7.22658 51.3647 7.1172 51.5486 7.0448C51.7325 6.97239 51.9292 6.93848 52.1267 6.94516C52.3218 6.93155 52.5175 6.95907 52.7013 7.02593C52.8851 7.0928 53.0529 7.19753 53.1939 7.33338C53.3348 7.46923 53.4459 7.63318 53.5198 7.81467C53.5937 7.99616 53.6288 8.19115 53.6229 8.38709C53.6297 8.5859 53.5956 8.78396 53.5228 8.969C53.4499 9.15404 53.34 9.3221 53.1997 9.46276C53.0594 9.60342 52.8917 9.71366 52.7072 9.78666C52.5226 9.85965 52.325 9.89384 52.1267 9.88709ZM52.1267 9.5C52.2648 9.50117 52.4015 9.47265 52.5276 9.41635C52.6537 9.36004 52.7663 9.27728 52.8578 9.17363C52.9493 9.06998 53.0175 8.94786 53.0579 8.81552C53.0984 8.68317 53.11 8.54368 53.092 8.40645C53.1242 8.26472 53.1242 8.11754 53.0919 7.97584C53.0596 7.83413 52.9959 7.70154 52.9055 7.58791C52.815 7.47428 52.7002 7.38253 52.5696 7.31947C52.439 7.25641 52.2958 7.22367 52.1508 7.22367C52.0059 7.22367 51.8627 7.25641 51.7321 7.31947C51.6014 7.38253 51.4867 7.47428 51.3962 7.58791C51.3058 7.70154 51.2421 7.83413 51.2098 7.97584C51.1775 8.11754 51.1775 8.26472 51.2097 8.40645C51.1921 8.5397 51.2025 8.67515 51.24 8.80417C51.2776 8.93319 51.3415 9.05296 51.4278 9.15584C51.5141 9.25871 51.6208 9.34245 51.7411 9.4017C51.8614 9.46096 51.9928 9.49443 52.1267 9.5Z" fill="black"/>
<path d="M56.5764 9.15164C56.5555 9.37373 56.5555 9.5973 56.5764 9.81938H56.0648L56.0165 9.471C55.896 9.60722 55.7471 9.71514 55.5802 9.78706C55.4134 9.85898 55.2328 9.89315 55.0512 9.88713C54.9336 9.90345 54.8138 9.89483 54.6996 9.86185C54.5854 9.82886 54.4795 9.77224 54.3885 9.69563C54.2975 9.61902 54.2236 9.52413 54.1715 9.4171C54.1194 9.31006 54.0902 9.19325 54.0859 9.07422C54.0859 8.3968 54.752 8.02906 55.9586 8.02906V7.971C55.9586 7.73874 55.8911 7.31293 55.254 7.32261C54.9665 7.31941 54.6833 7.39288 54.4334 7.53551L54.308 7.18713C54.624 7.02332 54.9754 6.94022 55.3312 6.94519C55.4898 6.92029 55.6521 6.93248 55.8053 6.98078C55.9584 7.02909 56.0984 7.11222 56.2143 7.22369C56.3301 7.33516 56.4187 7.47195 56.4732 7.6234C56.5276 7.77485 56.5464 7.93687 56.5282 8.0968L56.5764 9.15164ZM55.9876 8.38713C55.3601 8.38713 54.6651 8.47422 54.6651 9.01616C54.662 9.08433 54.6736 9.15237 54.699 9.21565C54.7245 9.27892 54.7634 9.33593 54.8128 9.38279C54.8623 9.42964 54.9213 9.46524 54.9858 9.48714C55.0503 9.50905 55.1187 9.51674 55.1864 9.50971C55.3483 9.52077 55.5096 9.48107 55.648 9.3961C55.7863 9.31113 55.8949 9.18512 55.9586 9.03551C55.9686 8.98113 55.9686 8.92538 55.9586 8.871L55.9876 8.38713Z" fill="black"/>
<path d="M60.1772 5.69678V9.09355C60.1772 9.34516 60.1772 9.62581 60.1772 9.81936H59.6656V9.33549C59.5546 9.51262 59.3988 9.65704 59.2139 9.75396C59.029 9.85088 58.8218 9.89683 58.6134 9.8871C58.4296 9.88749 58.2477 9.85003 58.079 9.77705C57.9103 9.70407 57.7583 9.59712 57.6325 9.46283C57.5067 9.32855 57.4098 9.16979 57.3477 8.9964C57.2856 8.82301 57.2597 8.63868 57.2716 8.45484C57.257 8.26181 57.2823 8.06784 57.3461 7.88511C57.4098 7.70238 57.5106 7.53485 57.6421 7.39305C57.7735 7.25126 57.9328 7.13827 58.11 7.06119C58.2871 6.98411 58.4782 6.94461 58.6713 6.94516C58.8553 6.9257 59.0411 6.95474 59.2104 7.02943C59.3797 7.10412 59.5266 7.22185 59.6366 7.37097V5.69678H60.1772ZM59.6076 8.15484C59.6171 8.08095 59.6171 8.00615 59.6076 7.93226C59.5547 7.7571 59.4456 7.60434 59.2972 7.49763C59.1489 7.39091 58.9696 7.33619 58.7871 7.34194C58.65 7.34094 58.5142 7.36925 58.3889 7.42498C58.2635 7.48071 58.1514 7.56257 58.0601 7.66512C57.9688 7.76768 57.9003 7.88856 57.8592 8.01972C57.8181 8.15089 57.8054 8.28932 57.8218 8.42581C57.8112 8.55925 57.8282 8.69347 57.8719 8.81996C57.9156 8.94646 57.985 9.0625 58.0757 9.16073C58.1665 9.25896 58.2765 9.33725 58.399 9.39065C58.5214 9.44405 58.6536 9.4714 58.7871 9.47097C58.973 9.4744 59.1548 9.41663 59.3048 9.3065C59.4547 9.19637 59.5645 9.03998 59.6173 8.86129C59.6277 8.78747 59.6277 8.71254 59.6173 8.63871L59.6076 8.15484Z" fill="black"/>
<path d="M63.7585 9.88707C63.563 9.89926 63.3671 9.87044 63.1832 9.80246C62.9994 9.73447 62.8318 9.6288 62.691 9.49221C62.5502 9.35561 62.4393 9.19108 62.3655 9.00913C62.2917 8.82718 62.2566 8.63179 62.2623 8.43546C62.2565 8.23317 62.2929 8.0319 62.3692 7.84456C62.4456 7.65722 62.5601 7.48794 62.7056 7.34761C62.851 7.20727 63.0241 7.09897 63.2137 7.02966C63.4034 6.96035 63.6054 6.93156 63.8068 6.94513C64.0026 6.9301 64.1994 6.95656 64.3844 7.02279C64.5694 7.08902 64.7384 7.19353 64.8804 7.32953C65.0224 7.46553 65.1343 7.62998 65.2088 7.81218C65.2833 7.99438 65.3187 8.19025 65.3127 8.38707C65.3185 8.59062 65.2819 8.79315 65.205 8.98166C65.1282 9.17018 65.0129 9.34051 64.8666 9.48175C64.7203 9.62298 64.5461 9.73199 64.3553 9.80179C64.1645 9.87159 63.9612 9.90064 63.7585 9.88707ZM63.7585 9.49997C63.8966 9.50115 64.0333 9.47262 64.1594 9.41632C64.2855 9.36002 64.3981 9.27725 64.4896 9.1736C64.5811 9.06996 64.6494 8.94784 64.6898 8.81549C64.7302 8.68315 64.7418 8.54365 64.7239 8.40642C64.7239 8.14976 64.6222 7.90361 64.4411 7.72213C64.2601 7.54064 64.0146 7.43868 63.7585 7.43868C63.5025 7.43868 63.257 7.54064 63.076 7.72213C62.8949 7.90361 62.7932 8.14976 62.7932 8.40642C62.7768 8.54291 62.7895 8.68135 62.8306 8.81251C62.8717 8.94368 62.9402 9.06456 63.0315 9.16711C63.1228 9.26966 63.2349 9.35153 63.3603 9.40725C63.4857 9.46298 63.6214 9.49129 63.7585 9.49029V9.49997Z" fill="black"/>
<path d="M66.0273 7.76779C66.0273 7.47746 66.0273 7.2452 66.0273 7.00327H66.5293V7.46779C66.6429 7.29748 66.7988 7.15975 66.9816 7.06813C67.1643 6.9765 67.3678 6.93414 67.5718 6.9452C67.727 6.93851 67.8817 6.96569 68.0253 7.02487C68.1689 7.08405 68.298 7.17382 68.4036 7.28795C68.5091 7.40209 68.5887 7.53787 68.6368 7.68589C68.6849 7.83391 68.7003 7.99063 68.6819 8.14521V9.8194H68.1124V8.24198C68.1124 7.78714 67.929 7.40004 67.3884 7.40004C67.2247 7.39959 67.0648 7.44943 66.9301 7.54286C66.7955 7.63629 66.6927 7.76883 66.6355 7.92262C66.6201 8.00253 66.6201 8.08465 66.6355 8.16456V9.8194H66.0273V7.76779Z" fill="black"/>
<path d="M71.6546 6.3064V6.97414H72.4655V7.37091H71.6546V8.9193C71.6546 9.26769 71.7608 9.46124 72.0793 9.46124C72.1879 9.48002 72.299 9.48002 72.4076 9.46124V9.85801C72.2439 9.90259 72.0752 9.92537 71.9056 9.92575C71.6829 9.93758 71.4644 9.86111 71.2975 9.71285C71.1306 9.50234 71.0511 9.23546 71.0754 8.96769V7.39995H70.5928V7.00317H71.0754V6.49027L71.6546 6.3064Z" fill="black"/>
<path d="M73.1025 5.69678H73.6721V7.44839C73.7705 7.29278 73.9111 7.16856 74.0775 7.09033C74.2544 6.99161 74.4542 6.94153 74.6567 6.94516C74.8115 6.93823 74.9659 6.96534 75.1091 7.0246C75.2523 7.08385 75.3809 7.17381 75.4857 7.28816C75.5906 7.40251 75.6692 7.53848 75.7161 7.68653C75.763 7.83458 75.777 7.99112 75.7571 8.14516V9.81936H75.1876V8.24194C75.1876 7.7871 75.0042 7.40968 74.4636 7.40968C74.301 7.40848 74.1419 7.4569 74.0074 7.54852C73.8729 7.64013 73.7694 7.7706 73.7107 7.92258C73.6898 8.00187 73.6898 8.08523 73.7107 8.16452V9.81936H73.1411L73.1025 5.69678Z" fill="black"/>
<path d="M77.0027 8.5032C77.0021 8.63885 77.0299 8.77314 77.0843 8.89733C77.1387 9.02153 77.2186 9.13287 77.3187 9.22412C77.4188 9.31537 77.537 9.3845 77.6655 9.42702C77.794 9.46954 77.93 9.48451 78.0646 9.47094C78.3607 9.47752 78.6554 9.42828 78.9334 9.32578L79.0299 9.69352C78.696 9.81521 78.3426 9.87425 77.9874 9.86771C77.7919 9.88982 77.594 9.86979 77.4069 9.80898C77.2198 9.74816 77.0478 9.64796 76.9025 9.51509C76.7572 9.38222 76.6418 9.21975 76.5642 9.03855C76.4866 8.85736 76.4485 8.66163 76.4525 8.46449C76.439 8.26512 76.4672 8.06511 76.5353 7.87733C76.6035 7.68954 76.7101 7.51813 76.8483 7.37412C76.9865 7.23011 77.1532 7.11669 77.3378 7.04114C77.5223 6.96559 77.7205 6.92959 77.9198 6.93545C78.0923 6.92692 78.2647 6.95502 78.4256 7.01792C78.5865 7.08082 78.7323 7.1771 78.8536 7.30044C78.9748 7.42379 79.0686 7.57143 79.1289 7.73367C79.1893 7.89592 79.2147 8.06911 79.2036 8.24191C79.2153 8.32537 79.2153 8.41005 79.2036 8.49352L77.0027 8.5032ZM78.6534 8.13546C78.6661 8.02805 78.6554 7.91916 78.6219 7.81633C78.5884 7.71351 78.533 7.61923 78.4595 7.54004C78.3861 7.46085 78.2963 7.39864 78.1964 7.35774C78.0965 7.31684 77.989 7.29823 77.8812 7.3032C77.658 7.30532 77.444 7.39253 77.2826 7.5471C77.1213 7.70168 77.0247 7.91204 77.0124 8.13546H78.6534Z" fill="black"/>
</g>
<defs>
<clipPath id="clip0_17480_65805">
<rect width="101" height="30" fill="white" transform="translate(0 0.5)"/>
</clipPath>
</defs>
</svg>
