<svg width="16" height="17" viewBox="0 0 16 17" fill="none" xmlns="http://www.w3.org/2000/svg">
<path d="M15.7777 13.8048L13.5219 16.0425C13.1889 16.384 12.7475 16.4997 12.3176 16.5002C10.4167 16.4433 8.61987 15.5095 7.14456 14.5507C4.72294 12.789 2.50099 10.6045 1.10646 7.96467C0.571602 6.8577 -0.0559709 5.44528 0.00398907 4.2097C0.00933573 3.7449 0.134589 3.28872 0.461936 2.98912L2.71775 0.734442C3.18618 0.336002 3.63918 0.473762 3.93894 0.937869L5.75375 4.37923C5.94476 4.78692 5.83519 5.22375 5.5502 5.51507L4.71911 6.34574C4.6678 6.41602 4.63514 6.49602 4.63431 6.58308C4.953 7.81671 5.91848 8.95374 6.77139 9.73623C7.62428 10.5187 8.54106 11.5789 9.73108 11.8298C9.87818 11.8709 10.0583 11.8853 10.1636 11.7875L11.1304 10.8042C11.4637 10.5516 11.9449 10.4281 12.3007 10.6347H12.3176L15.5911 12.5673C16.0716 12.8685 16.1217 13.4506 15.7777 13.8048Z" fill="#00ADE5"/>
</svg>
