<svg width="18" height="14" viewBox="0 0 18 14" fill="none" xmlns="http://www.w3.org/2000/svg">
<rect x="2" y="11" width="3" height="3" fill="#0959A0"/>
<rect x="6" y="8" width="3" height="6" fill="#CED6E0"/>
<rect x="10" y="5" width="3" height="9" fill="#CED6E0"/>
<rect x="14" y="2" width="3" height="12" fill="#CED6E0"/>
<path d="M4.51238 4.56445V5.00977H1.43035V4.69043L3.34051 1.73438H3.78289L3.30828 2.58984L2.04559 4.56445H4.51238ZM3.91766 1.73438V6H3.37566V1.73438H3.91766ZM8.28254 3.87598V5.4375C8.2298 5.51562 8.14582 5.60352 8.03059 5.70117C7.91535 5.79688 7.75617 5.88086 7.55305 5.95312C7.35187 6.02344 7.09211 6.05859 6.77375 6.05859C6.51398 6.05859 6.27473 6.01367 6.05598 5.92383C5.83918 5.83203 5.6507 5.69922 5.49055 5.52539C5.33234 5.34961 5.2093 5.13672 5.12141 4.88672C5.03547 4.63477 4.9925 4.34961 4.9925 4.03125V3.7002C4.9925 3.38184 5.02961 3.09766 5.10383 2.84766C5.18 2.59766 5.29133 2.38574 5.43781 2.21191C5.5843 2.03613 5.76398 1.90332 5.97687 1.81348C6.18977 1.72168 6.43391 1.67578 6.7093 1.67578C7.03547 1.67578 7.30793 1.73242 7.52668 1.8457C7.74738 1.95703 7.91926 2.11133 8.0423 2.30859C8.1673 2.50586 8.24738 2.73047 8.28254 2.98242H7.71711C7.69172 2.82812 7.64094 2.6875 7.56477 2.56055C7.49055 2.43359 7.3841 2.33203 7.24543 2.25586C7.10676 2.17773 6.92805 2.13867 6.7093 2.13867C6.51203 2.13867 6.34113 2.1748 6.1966 2.24707C6.05207 2.31934 5.93293 2.42285 5.83918 2.55762C5.74543 2.69238 5.67512 2.85547 5.62824 3.04688C5.58332 3.23828 5.56086 3.4541 5.56086 3.69434V4.03125C5.56086 4.27734 5.58918 4.49707 5.64582 4.69043C5.70441 4.88379 5.78742 5.04883 5.89484 5.18555C6.00227 5.32031 6.1302 5.42285 6.27863 5.49316C6.42902 5.56348 6.59504 5.59863 6.77668 5.59863C6.97785 5.59863 7.14094 5.58203 7.26594 5.54883C7.39094 5.51367 7.48859 5.47266 7.55891 5.42578C7.62922 5.37695 7.68293 5.33105 7.72004 5.28809V4.33301H6.73273V3.87598H8.28254Z" fill="#2F3542"/>
</svg>
