<svg width="11" height="13" viewBox="0 0 11 13" fill="none" xmlns="http://www.w3.org/2000/svg">
<path d="M1.8 12.5H9.6C9.91826 12.5 10.2235 12.3736 10.4485 12.1485C10.6736 11.9235 10.8 11.6183 10.8 11.3V1.7C10.8 1.38174 10.6736 1.07652 10.4485 0.851472C10.2235 0.626428 9.91826 0.5 9.6 0.5H1.2C0.88174 0.5 0.576515 0.626428 0.351472 0.851472C0.126428 1.07652 0 1.38174 0 1.7V11.3C0 11.6183 0.126428 11.9235 0.351472 12.1485C0.576515 12.3736 0.88174 12.5 1.2 12.5H1.8ZM5.4 2.2994C6.3882 2.2994 7.2 3.11 7.2 4.0994C7.2 5.0882 6.3882 5.9 5.4 5.9C4.4118 5.9 3.6 5.0882 3.6 4.0994C3.6 3.11 4.4118 2.2994 5.4 2.2994ZM1.8 9.65C1.8 8.3186 3.423 6.95 5.4 6.95C7.377 6.95 9 8.3186 9 9.65V10.1H1.8V9.65Z" fill="white"/>
</svg>