<svg width="16" height="15" viewBox="0 0 16 15" fill="none" xmlns="http://www.w3.org/2000/svg">
<path d="M8.11069 14.7099C12.0624 14.7099 15.2658 11.5759 15.2658 7.70987C15.2658 3.84388 12.0624 0.709869 8.11069 0.709869C4.15902 0.709869 0.955566 3.84388 0.955566 7.70987C0.955566 11.5759 4.15902 14.7099 8.11069 14.7099Z" fill="#00ABE1"/>
<path d="M8.11082 13.3099C11.2721 13.3099 13.8349 10.8027 13.8349 7.7099C13.8349 4.6171 11.2721 2.10989 8.11082 2.10989C4.94948 2.10989 2.38672 4.6171 2.38672 7.7099C2.38672 10.8027 4.94948 13.3099 8.11082 13.3099Z" fill="#F3F3F3"/>
<path d="M7.75293 3.15982H8.46844V7.7098H7.75293V3.15982Z" fill="#2F3542"/>
<path d="M10.7168 9.68877L10.1354 10.2579L7.80859 7.98147L8.39031 7.41202L10.7168 9.68877Z" fill="#2F3542"/>
<path d="M8.11102 8.40992C8.50619 8.40992 8.82653 8.09652 8.82653 7.70992C8.82653 7.32332 8.50619 7.00992 8.11102 7.00992C7.71585 7.00992 7.39551 7.32332 7.39551 7.70992C7.39551 8.09652 7.71585 8.40992 8.11102 8.40992Z" fill="white"/>
<path d="M8.11069 8.05989C8.30827 8.05989 8.46844 7.90319 8.46844 7.70989C8.46844 7.51659 8.30827 7.35989 8.11069 7.35989C7.9131 7.35989 7.75293 7.51659 7.75293 7.70989C7.75293 7.90319 7.9131 8.05989 8.11069 8.05989Z" fill="#00ABE1"/>
</svg>