<svg width="45" height="44" viewBox="0 0 45 44" fill="none" xmlns="http://www.w3.org/2000/svg">
<rect y="-6.10352e-05" width="44.375" height="43.9375" fill="#00ABE1" fill-opacity="0.6"/>
<path fill-rule="evenodd" clip-rule="evenodd" d="M24.931 11.9319C24.9999 11.9999 25.0546 12.0807 25.0918 12.1697C25.1291 12.2586 25.1483 12.354 25.1483 12.4503C25.1483 12.5466 25.1291 12.642 25.0918 12.731C25.0546 12.82 24.9999 12.9008 24.931 12.9688L16.5782 21.2378L24.931 29.5069C25.0699 29.6444 25.1479 29.8309 25.1479 30.0253C25.1479 30.2198 25.0699 30.4063 24.931 30.5438C24.7922 30.6813 24.6038 30.7585 24.4074 30.7585C24.211 30.7585 24.0227 30.6813 23.8838 30.5438L15.0088 21.7563C14.9399 21.6883 14.8853 21.6074 14.848 21.5185C14.8107 21.4295 14.7915 21.3341 14.7915 21.2378C14.7915 21.1415 14.8107 21.0461 14.848 20.9572C14.8853 20.8682 14.9399 20.7874 15.0088 20.7194L23.8838 11.9319C23.9525 11.8637 24.0341 11.8096 24.124 11.7726C24.2138 11.7357 24.3101 11.7167 24.4074 11.7167C24.5047 11.7167 24.601 11.7357 24.6909 11.7726C24.7807 11.8096 24.8623 11.8637 24.931 11.9319V11.9319Z" fill="white"/>
</svg>