<svg width="10" height="14" viewBox="0 0 10 14" fill="none" xmlns="http://www.w3.org/2000/svg">
<path d="M5 0.790131C2.23571 0.790131 0 2.88001 0 5.46399C0 8.24827 3.15714 12.0875 4.45714 13.5498C4.74286 13.8703 5.26429 13.8703 5.55 13.5498C6.84286 12.0875 10 8.24827 10 5.46399C10 2.88001 7.76429 0.790131 5 0.790131ZM5 7.13322C4.5264 7.13322 4.0722 6.95736 3.73731 6.64431C3.40242 6.33127 3.21429 5.9067 3.21429 5.46399C3.21429 5.02128 3.40242 4.5967 3.73731 4.28366C4.0722 3.97062 4.5264 3.79475 5 3.79475C5.4736 3.79475 5.9278 3.97062 6.26269 4.28366C6.59758 4.5967 6.78571 5.02128 6.78571 5.46399C6.78571 5.9067 6.59758 6.33127 6.26269 6.64431C5.9278 6.95736 5.4736 7.13322 5 7.13322V7.13322Z" fill="#E63C2B"/>
</svg>