<svg width="11" height="14" viewBox="0 0 11 14" fill="none" xmlns="http://www.w3.org/2000/svg">
<path fill-rule="evenodd" clip-rule="evenodd" d="M3.38867 13C3.38867 13.2652 3.28331 13.5196 3.09578 13.7071C2.90824 13.8946 2.65389 14 2.38867 14H1.38867C1.12346 14 0.869102 13.8946 0.681565 13.7071C0.494029 13.5196 0.388672 13.2652 0.388672 13V1C0.388672 0.734784 0.494029 0.48043 0.681565 0.292893C0.869102 0.105357 1.12346 0 1.38867 0H2.38867C2.65389 0 2.90824 0.105357 3.09578 0.292893C3.28331 0.48043 3.38867 0.734784 3.38867 1V13ZM10.3887 13C10.3887 13.2652 10.2833 13.5196 10.0958 13.7071C9.90824 13.8946 9.65389 14 9.38867 14H8.38867C8.12346 14 7.8691 13.8946 7.68157 13.7071C7.49403 13.5196 7.38867 13.2652 7.38867 13V1C7.38867 0.734784 7.49403 0.48043 7.68157 0.292893C7.8691 0.105357 8.12346 0 8.38867 0H9.38867C9.65389 0 9.90824 0.105357 10.0958 0.292893C10.2833 0.48043 10.3887 0.734784 10.3887 1V13Z" fill="white"/>
</svg>