<svg width="11" height="12" viewBox="0 0 11 12" fill="none" xmlns="http://www.w3.org/2000/svg">
<path d="M0.500004 12C0.367394 12 0.240217 11.9473 0.146448 11.8536C0.0526789 11.7598 0 11.6326 0 11.5V0.499918C1.48756e-05 0.413032 0.0226705 0.32765 0.0657339 0.252186C0.108797 0.176723 0.170782 0.113784 0.245578 0.0695721C0.320375 0.0253605 0.405401 0.00140243 0.492277 5.97217e-05C0.579152 -0.00128299 0.664878 0.020036 0.741005 0.061915L10.7411 5.56195C10.8195 5.60512 10.8848 5.66853 10.9304 5.74557C10.9759 5.82262 10.9999 5.91047 10.9999 5.99996C10.9999 6.08945 10.9759 6.1773 10.9304 6.25434C10.8848 6.33139 10.8195 6.3948 10.7411 6.43796L0.741005 11.938C0.66718 11.9786 0.584279 12 0.500004 12Z" fill="white"/>
</svg>