<svg width="45" height="44" viewBox="0 0 45 44" fill="none" xmlns="http://www.w3.org/2000/svg">
<rect x="0.291504" y="-6.10352e-05" width="44.375" height="43.9375" fill="#00ABE1" fill-opacity="0.6"/>
<path fill-rule="evenodd" clip-rule="evenodd" d="M21.2173 11.9319C21.286 11.8637 21.3676 11.8096 21.4574 11.7726C21.5473 11.7357 21.6436 11.7167 21.7409 11.7167C21.8382 11.7167 21.9345 11.7357 22.0244 11.7726C22.1142 11.8096 22.1958 11.8637 22.2645 11.9319L31.1395 20.7194C31.2084 20.7874 31.2631 20.8682 31.3003 20.9572C31.3376 21.0461 31.3568 21.1415 31.3568 21.2378C31.3568 21.3341 31.3376 21.4295 31.3003 21.5185C31.2631 21.6074 31.2084 21.6883 31.1395 21.7563L22.2645 30.5438C22.1257 30.6813 21.9373 30.7585 21.7409 30.7585C21.5445 30.7585 21.3562 30.6813 21.2173 30.5438C21.0784 30.4063 21.0004 30.2198 21.0004 30.0253C21.0004 29.8309 21.0784 29.6444 21.2173 29.5069L29.5701 21.2378L21.2173 12.9688C21.1484 12.9008 21.0938 12.82 21.0565 12.731C21.0192 12.642 21 12.5466 21 12.4503C21 12.354 21.0192 12.2586 21.0565 12.1697C21.0938 12.0807 21.1484 11.9999 21.2173 11.9319Z" fill="white"/>
</svg>