<svg width="16" height="15" viewBox="0 0 16 15" fill="none" xmlns="http://www.w3.org/2000/svg">
<path d="M15.5511 6.98534C15.7193 6.86281 15.8441 6.69187 15.9079 6.4965C15.9717 6.30113 15.9714 6.09112 15.9071 5.89592C15.8427 5.70071 15.7175 5.53011 15.549 5.40802C15.3804 5.28593 15.1771 5.21848 14.9674 5.21513L10.8947 5.06467C10.8746 5.06332 10.8554 5.05633 10.8394 5.04455C10.8233 5.03277 10.8111 5.01671 10.8042 4.99828L9.39681 1.28086C9.3261 1.09173 9.19767 0.928418 9.02891 0.813035C8.86015 0.697653 8.65922 0.635773 8.4533 0.635773C8.24739 0.635773 8.04645 0.697653 7.87769 0.813035C7.70893 0.928418 7.5805 1.09173 7.50979 1.28086L6.10697 5.01156C6.10004 5.02998 6.08781 5.04605 6.07175 5.05783C6.05569 5.06961 6.03649 5.07659 6.01647 5.07794L1.94376 5.22841C1.73407 5.23176 1.5307 5.29921 1.36218 5.4213C1.19365 5.54338 1.06843 5.71399 1.00406 5.90919C0.939686 6.1044 0.939397 6.31441 1.00323 6.50978C1.06707 6.70515 1.19182 6.87608 1.36001 6.99861L4.55482 9.45477C4.57081 9.46708 4.58276 9.4837 4.58919 9.50257C4.59563 9.52145 4.59626 9.54176 4.59102 9.56098L3.49139 13.3713C3.43441 13.5654 3.43993 13.7719 3.5072 13.9627C3.57447 14.1536 3.70023 14.3195 3.86737 14.438C4.0345 14.5565 4.2349 14.6217 4.44131 14.6249C4.64771 14.628 4.85009 14.5689 5.02092 14.4556L8.39674 12.2428C8.41337 12.2316 8.4331 12.2256 8.4533 12.2256C8.47351 12.2256 8.49324 12.2316 8.50987 12.2428L11.8857 14.4556C12.0542 14.5728 12.2559 14.6358 12.4627 14.6358C12.6694 14.6358 12.8711 14.5728 13.0396 14.4556C13.2068 14.3382 13.3327 14.1731 13.3999 13.9829C13.4672 13.7927 13.4725 13.5868 13.4152 13.3935L12.3065 9.56984C12.3007 9.55064 12.301 9.53014 12.3075 9.51113C12.3139 9.49212 12.3263 9.47553 12.3427 9.46362L15.5511 6.98534Z" fill="#CED6E0"/>
</svg>